<svg width="34" height="34" viewBox="0 0 34 34" fill="none" xmlns="http://www.w3.org/2000/svg">
<path d="M12.0417 19.125L15.5833 23.375L20.5417 17L26.9167 25.5H7.08333L12.0417 19.125ZM29.75 26.9167V7.08333C29.75 5.51083 28.475 4.25 26.9167 4.25H7.08333C6.33189 4.25 5.61122 4.54851 5.07986 5.07986C4.54851 5.61122 4.25 6.33189 4.25 7.08333V26.9167C4.25 27.6681 4.54851 28.3888 5.07986 28.9201C5.61122 29.4515 6.33189 29.75 7.08333 29.75H26.9167C27.6681 29.75 28.3888 29.4515 28.9201 28.9201C29.4515 28.3888 29.75 27.6681 29.75 26.9167Z" fill="#06DE90"></path>
</svg>