<svg width="34" height="34" viewBox="0 0 34 34" fill="none" xmlns="http://www.w3.org/2000/svg">
<path d="M29.75 25.5V26.9167C29.75 27.6681 29.4515 28.3888 28.9201 28.9201C28.3888 29.4515 27.6681 29.75 26.9167 29.75H7.08333C5.51083 29.75 4.25 28.475 4.25 26.9167V7.08333C4.25 6.33189 4.54851 5.61122 5.07986 5.07986C5.61122 4.54851 6.33189 4.25 7.08333 4.25H26.9167C27.6681 4.25 28.3888 4.54851 28.9201 5.07986C29.4515 5.61122 29.75 6.33189 29.75 7.08333V8.5H17C15.4275 8.5 14.1667 9.775 14.1667 11.3333V22.6667C14.1667 23.4181 14.4652 24.1388 14.9965 24.6701C15.5279 25.2015 16.2486 25.5 17 25.5H29.75ZM17 22.6667H31.1667V11.3333H17V22.6667ZM22.6667 19.125C22.1031 19.125 21.5626 18.9011 21.1641 18.5026C20.7656 18.1041 20.5417 17.5636 20.5417 17C20.5417 16.4364 20.7656 15.8959 21.1641 15.4974C21.5626 15.0989 22.1031 14.875 22.6667 14.875C23.2303 14.875 23.7708 15.0989 24.1693 15.4974C24.5678 15.8959 24.7917 16.4364 24.7917 17C24.7917 17.5636 24.5678 18.1041 24.1693 18.5026C23.7708 18.9011 23.2303 19.125 22.6667 19.125Z" fill="#FF766A"></path>
</svg>